#!OML:ASF H:\Terrain\Patient Classification 1\Animal2\Wednesday\Animal2.ASF
:FULLY-SPECIFIED
:DEGREES
2519
root 9.54332 17.0224 -22.2623 19.0331 -13.1338 -0.241823
lowerback 14.1905 -4.95234 -0.977535
upperback -7.90368 -6.73628 1.91
thorax -16.6505 -2.81264 4.62341
lowerneck 2.85361 4.45986 14.5834
upperneck -9.19604 5.34661 -18.9896
head -2.14206 2.89777 -8.45881
rclavicle -7.66315e-014 3.18055e-015
rhumerus -45.512 -48.1982 47.9674
rradius 21.9103
rwrist 19.5056
rhand -7.36388 9.20318
rfingers 7.12502
rthumb 18.5208 -19.9351
lclavicle -7.66315e-014 3.18055e-015
lhumerus -43.8115 28.6617 -37.2697
lradius 29.9886
lwrist 8.43826
lhand -16.9623 29.2488
lfingers 7.12502
lthumb 9.27172 59.0249
rfemur -50.26 -3.46707 0.230245
rtibia 43.7343
rfoot 2.60184 -8.74733
rtoes 19.4894
lfemur -1.048 -1.21178 3.09361
ltibia 12.368
lfoot 0.863468 2.27279
ltoes -36.4923
2520
root 9.37569 17.0596 -22.2208 19.2317 -13.4105 0.0526988
lowerback 14.0736 -4.91006 -1.06752
upperback -7.86697 -6.69292 1.93127
thorax -16.5187 -2.7888 4.66755
lowerneck 3.06651 4.52396 14.4578
upperneck -9.68421 5.37625 -19.2359
head -2.30608 2.93972 -8.54164
rclavicle 4.92489e-014 -3.26007e-014
rhumerus -44.7179 -47.8653 46.8465
rradius 21.8522
rwrist 18.8019
rhand -8.88115 8.57825
rfingers 7.12502
rthumb 17.0608 -20.6926
lclavicle 4.92489e-014 -3.26007e-014
lhumerus -43.5461 28.7416 -36.354
lradius 29.8623
lwrist 9.05743
lhand -17.7478 29.7347
lfingers 7.12502
lthumb 8.51375 59.5431
rfemur -50.67 -3.26932 0.199291
rtibia 43.5858
rfoot 3.09435 -8.61774
rtoes 18.681
lfemur -1.47979 -0.815731 3.1648
ltibia 12.8423
lfoot 3.25827 2.33722
ltoes -32.5421
2521
root 9.20759 17.0875 -22.1751 19.2195 -13.5356 0.342949
lowerback 14.1364 -4.95302 -1.01797
upperback -7.67336 -6.73513 1.92569
thorax -16.3228 -2.82287 4.63397
lowerneck 2.82281 4.67053 14.3352
upperneck -10.1018 5.46757 -19.5377
head -2.35698 2.99331 -8.62546
rclavicle 1.52816e-014 -3.26007e-014
rhumerus -44.1969 -47.7885 45.9079
rradius 21.8
rwrist 17.9932
rhand -10.2567 8.02906
rfingers 7.12502
rthumb 15.7364 -21.3512
lclavicle 1.52816e-014 -3.26007e-014
lhumerus -43.4227 28.9412 -35.5689
lradius 29.7152
lwrist 9.53155
lhand -18.4639 29.6608
lfingers 7.12502
lthumb 7.82262 59.4961
rfemur -50.8024 -3.19036 0.288917
rtibia 43.5621
rfoot 3.42704 -8.61894
rtoes 16.0378
lfemur -2.17599 -0.475411 3.30268
ltibia 14.1022
lfoot 5.08856 2.2974
ltoes -28.0068
2522
root 9.0393 17.1112 -22.1198 18.667 -13.4317 0.810823
lowerback 14.5955 -5.08573 -0.899299
upperback -7.26296 -6.90389 1.7452
thorax -16.1377 -2.93054 4.42576
lowerneck 2.32953 4.81766 14.5036
upperneck -10.3706 5.55147 -20.0348
head -2.30463 3.02719 -8.81312
rclavicle -5.4964e-014 -2.00773e-014
rhumerus -44.5609 -48.5717 45.9489
rradius 21.7118
rwrist 18.0819
rhand -11.5001 7.53368
rfingers 7.12502
rthumb 14.5387 -21.9369
lclavicle -5.4964e-014 -2.00773e-014
lhumerus -43.1843 29.6052 -35.0016
lradius 29.4286
lwrist 9.74327
lhand -18.9276 29.2618
lfingers 7.12502
lthumb 7.37503 59.1133
rfemur -50.2963 -3.37888 0.338673
rtibia 43.7332
rfoot 2.61971 -8.67038
rtoes 15.5945
lfemur -2.62295 -0.517493 3.32334
ltibia 15.6401
lfoot 6.72683 2.25373
ltoes -24.5789
2523
root 8.87833 17.1119 -22.0865 18.8959 -14.0069 1.03653
lowerback 14.3976 -4.91207 -0.818117
upperback -7.12205 -6.66308 1.61292
thorax -15.8819 -2.85195 4.13113
lowerneck 2.21487 4.85502 14.7117
upperneck -10.6711 5.52679 -20.5099
head -2.34579 3.02344 -9.0182
rclavicle 1.21085e-013 3.18055e-014
rhumerus -45.0653 -49.4688 46.2735
rradius 21.6762
rwrist 18.6164
rhand -13.0163 6.87237
rfingers 7.12502
rthumb 13.0775 -22.6976
lclavicle 1.21085e-013 3.18055e-014
lhumerus -42.61 30.0031 -33.9913
lradius 29.2623
lwrist 10.2294
lhand -19.7347 29.3544
lfingers 7.12502
lthumb 6.59595 59.2317
rfemur -51.0626 -3.48467 0.603223
rtibia 44.1473
rfoot 1.92351 -8.11697
rtoes 18.4246
lfemur -3.61036 0.154448 3.35975
ltibia 17.2472
lfoot 8.60715 2.60549
ltoes -21.4742
2524
root 8.71801 17.1189 -22.0474 18.3465 -14.2317 1.52709
lowerback 14.9415 -4.86702 -0.921732
upperback -6.7809 -6.63557 1.46237
thorax -15.8182 -2.83696 4.04268
lowerneck 2.2462 4.92562 14.5823
upperneck -11.1219 5.54944 -20.6671
head -2.4717 3.05311 -9.06577
rclavicle -6.99971e-014 -6.55989e-015
rhumerus -45.2167 -50.2877 46.3037
rradius 21.5451
rwrist 18.9864
rhand -14.6767 6.79901
rfingers 7.12502
rthumb 11.4766 -22.8668
lclavicle -6.99971e-014 -6.55989e-015
lhumerus -42.1573 30.114 -32.8186
lradius 29.2804
lwrist 10.7946
lhand -20.5876 29.9952
lfingers 7.12502
lthumb 5.77248 59.8966
rfemur -50.8841 -3.69362 0.682274
rtibia 44.8758
rfoot 1.3495 -7.46915
rtoes 22.0463
lfemur -4.19809 0.238509 3.19139
ltibia 19.1647
lfoot 10.2432 3.08191
ltoes -17.5572
